<?xml version="1.0" standalone="no"?>
<!DOCTYPE svg PUBLIC "-//W3C//DTD SVG 20010904//EN"
 "http://www.w3.org/TR/2001/REC-SVG-20010904/DTD/svg10.dtd">
<svg version="1.0" xmlns="http://www.w3.org/2000/svg"
 width="48.000000pt" height="48.000000pt" viewBox="0 0 48.000000 48.000000"
 preserveAspectRatio="xMidYMid meet">

<g transform="translate(0.000000,48.000000) scale(0.100000,-0.100000)"
fill="#000000" stroke="none">
<path d="M165 462 c-79 -38 -105 -92 -105 -222 0 -50 -5 -123 -11 -161 -6 -39
-8 -73 -4 -77 3 -3 15 0 27 7 16 10 26 10 48 1 22 -9 33 -9 50 0 18 9 28 9 46
-1 19 -10 29 -10 48 0 18 10 28 10 46 1 17 -9 28 -9 50 0 22 9 32 9 48 -1 12
-7 24 -11 27 -8 3 3 1 37 -5 75 -5 38 -10 111 -10 163 0 76 -4 103 -21 139
-42 85 -149 124 -234 84z m30 -163 c0 -24 -5 -34 -15 -34 -16 0 -25 37 -16 62
10 26 31 8 31 -28z m120 0 c0 -24 -5 -34 -15 -34 -16 0 -25 37 -16 62 10 26
31 8 31 -28z"/>
</g>
</svg>
